<svg width="388" height="375" viewBox="0 0 388 375" fill="none" xmlns="http://www.w3.org/2000/svg">
<path d="M236.798 36.8977L248.292 72.2736C255.655 94.9349 276.773 110.278 300.6 110.278H337.796C381.389 110.278 399.514 166.06 364.247 191.683L334.154 213.547C314.877 227.552 306.811 252.378 314.174 275.039L325.669 310.415C339.139 351.874 291.688 386.349 256.421 360.726L226.328 338.863C207.051 324.857 180.949 324.857 161.672 338.863L131.579 360.726C96.3121 386.349 48.8605 351.874 62.3313 310.415L73.8256 275.039C81.1887 252.378 73.1225 227.552 53.8457 213.547L23.7532 191.683C-11.5139 166.06 6.61095 110.278 50.2035 110.278H87.4C111.227 110.278 132.345 94.9349 139.708 72.2736L151.202 36.8977C164.673 -4.5613 223.327 -4.56132 236.798 36.8977Z" fill="#0085FF" stroke="#141414" stroke-width="10"/>
</svg>
